<svg width="36.000000" height="36.000000" viewBox="0 0 36 36" fill="none" xmlns="http://www.w3.org/2000/svg" xmlns:xlink="http://www.w3.org/1999/xlink">
	<desc>
			Created with Pixso.
	</desc>
	<defs>
		<clipPath id="clip1788_107">
			<rect id="Calendar" width="36.000000" height="36.000000" fill="white" fill-opacity="0"/>
		</clipPath>
	</defs>
	<rect id="Calendar" width="36.000000" height="36.000000" fill="#000000" fill-opacity="0"/>
	<g clip-path="url(#clip1788_107)">
		<path id="Vector" d="M23.687 3.00134C24.2551 3.03687 24.6934 3.5238 24.6782 4.10266L24.6782 5.65491C29.1914 6.09277 31.5 8.58716 31.5 13.0717L31.5 25.4772C31.5 30.4658 28.6565 33 23.0608 33L12.9392 33C7.34351 33 4.5 30.4658 4.5 25.4772L4.5 13.0717C4.5 10.0864 5.51733 7.95032 7.60425 6.70312L7.75073 6.61963C8.05322 6.47852 8.4082 6.49146 8.70312 6.6626C9.04712 6.86243 9.25024 7.24316 9.22754 7.64551C9.20483 8.04785 8.95996 8.40234 8.5957 8.56067C7.21313 9.38318 6.56079 10.8162 6.56079 13.0717L6.56079 13.4697L25.5913 13.4697C26.1604 13.4697 26.6218 13.939 26.6218 14.5178C26.6218 15.0968 26.1604 15.566 25.5913 15.566L6.56079 15.566L6.56079 25.4772C6.56079 29.285 8.41309 30.8639 12.9392 30.8904L23.0608 30.8904C27.5217 30.8904 29.426 29.2717 29.426 25.4639L29.426 13.0585C29.426 9.74146 27.9783 8.13599 24.6782 7.75122L24.6782 8.75964C24.6021 9.29712 24.1396 9.68945 23.6062 9.66895C23.0728 9.64856 22.6404 9.2218 22.6042 8.68005L22.6042 4.00977L22.6235 3.84387C22.666 3.62646 22.7754 3.42676 22.9382 3.27515C23.1416 3.08557 23.4114 2.98694 23.687 3.00134ZM24.2805 24.2955L24.4465 24.3062C24.7314 24.3419 24.9985 24.4725 25.2046 24.6802C25.4521 24.9293 25.5913 25.2689 25.5913 25.623C25.5913 26.3558 25.0073 26.9498 24.2869 26.9498C23.5667 26.9498 22.9827 26.3558 22.9827 25.623C22.9827 24.8903 23.5667 24.2963 24.2869 24.2963L24.2805 24.2955ZM18.0261 24.2963L18.1897 24.3066C18.8328 24.3885 19.3303 24.9467 19.3303 25.623C19.3303 26.3558 18.7463 26.9498 18.0261 26.9498C17.3057 26.9498 16.7217 26.3558 16.7217 25.623C16.7217 24.8903 17.3057 24.2963 18.0261 24.2963ZM11.772 24.2955L11.938 24.3062C12.2227 24.3419 12.4897 24.4725 12.696 24.6802C12.9434 24.9293 13.0825 25.2689 13.0825 25.623C13.0825 26.3558 12.4985 26.9498 11.7783 26.9498C11.0579 26.9498 10.4739 26.3558 10.4739 25.623C10.4739 24.8903 11.0579 24.2963 11.7783 24.2963L11.772 24.2955ZM24.2805 18.9225L24.4465 18.9327C24.7314 18.9684 24.9985 19.099 25.2046 19.3066C25.4521 19.5559 25.5913 19.8954 25.5913 20.2496C25.5913 20.9823 25.0073 21.5764 24.2869 21.5764C23.5667 21.5764 22.9827 20.9823 22.9827 20.2496C22.9827 19.5168 23.5667 18.9229 24.2869 18.9229L24.2805 18.9225ZM18.0261 18.9229L18.1897 18.9331C18.8328 19.015 19.3303 19.5732 19.3303 20.2496C19.3303 20.9823 18.7463 21.5764 18.0261 21.5764C17.3057 21.5764 16.7217 20.9823 16.7217 20.2496C16.7217 19.5168 17.3057 18.9229 18.0261 18.9229ZM11.772 18.9225L11.938 18.9327C12.2227 18.9684 12.4897 19.099 12.696 19.3066C12.9434 19.5559 13.0825 19.8954 13.0825 20.2496C13.0825 20.9823 12.4985 21.5764 11.7783 21.5764C11.0579 21.5764 10.4739 20.9823 10.4739 20.2496C10.4739 19.5168 11.0579 18.9229 11.7783 18.9229L11.772 18.9225ZM12.3586 3.15967C12.8899 3.15967 13.3364 3.56567 13.3958 4.10266L13.3958 5.54883L19.2913 5.54883C19.8604 5.54883 20.3218 6.01807 20.3218 6.59692C20.3218 7.1759 19.8604 7.64514 19.2913 7.64514L13.3696 7.64514L13.3696 8.69324C13.3696 8.97363 13.2593 9.24219 13.0632 9.43921C12.8672 9.63611 12.6016 9.745 12.3262 9.74146L12.1753 9.72644C11.6846 9.64014 11.3152 9.20166 11.3215 8.68005L11.3215 4.10266L11.3508 3.94568C11.4712 3.48853 11.8806 3.15967 12.3586 3.15967Z" fill="#446DF6" fill-opacity="1.000000" fill-rule="nonzero"/>
	</g>
</svg>
