<svg width="30.000000" height="30.000000" viewBox="0 0 30 30" fill="none" xmlns="http://www.w3.org/2000/svg" xmlns:xlink="http://www.w3.org/1999/xlink">
	<desc>
			Created with Pixso.
	</desc>
	<defs/>
	<path id="Vector" d="M15.01 0C17.4368 0 19.854 0.598633 22.002 1.73108C29.3149 5.5896 32.1272 14.6782 28.2712 21.9935C25.6414 26.9819 20.4631 30 14.9929 30C13.9243 30 12.845 29.885 11.7712 29.6472C11.166 29.5125 10.7844 28.9125 10.9177 28.3073C11.0513 27.702 11.6497 27.3229 12.2585 27.4536C17.845 28.6958 23.6123 26.0146 26.2847 20.9457C29.5632 14.7272 27.1721 6.99817 20.9543 3.71851C19.1289 2.75513 17.0735 2.24646 15.0088 2.24646C7.96533 2.24646 2.24561 7.9668 2.24561 14.998C2.24292 17.0463 2.74243 19.0852 3.68945 20.8969L3.97754 21.4597C4.33008 22.1205 4.40796 22.941 4.17944 23.6836C3.86377 24.5161 3.60107 25.3262 3.38428 26.1322C4.22705 25.8785 5.2561 25.5045 5.99976 25.2336L6.30493 25.124C6.88232 24.9086 7.53076 25.2139 7.74219 25.7979C7.95361 26.3806 7.65112 27.0255 7.0686 27.2356L6.76733 27.3453C5.65503 27.7483 4.1333 28.302 3.10571 28.5319C3.01831 28.5504 2.92456 28.5623 2.83887 28.5597C2.14917 28.5597 1.72925 28.2809 1.49805 28.0457C1.14258 27.6849 0.973633 27.1788 0.993408 26.5419C0.996094 26.4692 1.00537 26.3939 1.02246 26.3212C1.28931 25.1848 1.63672 24.051 2.05664 22.9529C2.08716 22.8458 2.0686 22.6516 1.98267 22.4891L1.6936 21.9275C0.585205 19.8053 -0.00268555 17.4043 0 14.9967C0 6.72729 6.72632 0 14.9929 0L15.01 0ZM14.9934 13.2142C15.9775 13.2142 16.7769 14.015 16.7769 14.9982C16.7769 15.9813 15.9775 16.7821 14.9934 16.7821C14.0093 16.7821 13.2102 15.9813 13.2102 14.9982C13.2102 14.015 14.0093 13.2142 14.9934 13.2142ZM21.5984 13.2142C22.5825 13.2142 23.3816 14.015 23.3816 14.9982C23.3816 15.9813 22.5825 16.7821 21.5984 16.7821C20.6143 16.7821 19.8149 15.9813 19.8149 14.9982C19.8149 14.015 20.6143 13.2142 21.5984 13.2142ZM8.38843 13.2147C9.37256 13.2147 10.1719 14.0143 10.1719 14.9987C10.1719 15.9818 9.37256 16.7812 8.38843 16.7812C7.4043 16.7812 6.60522 15.9818 6.60522 14.9987C6.60522 14.0143 7.4043 13.2147 8.38843 13.2147Z" fill="#446DF6" fill-opacity="1.000000" fill-rule="nonzero"/>
</svg>
