<svg width="27.000000" height="30.000000" viewBox="0 0 27 30" fill="none" xmlns="http://www.w3.org/2000/svg" xmlns:xlink="http://www.w3.org/1999/xlink">
	<desc>
			Created with Pixso.
	</desc>
	<defs/>
	<path id="Vector" d="M19.28 0C24.1001 0 26.9868 2.92712 27 7.81458L27 22.1854C27 27.0729 24.1262 30 19.2932 30L15.0088 30C14.4592 29.9386 14.0435 29.4678 14.0435 28.9072C14.0435 28.3468 14.4592 27.876 15.0088 27.8146L19.28 27.8146C22.9636 27.8146 24.8186 25.9205 24.8186 22.1854L24.8186 7.81458C24.8186 4.07947 22.9636 2.18542 19.28 2.18542L7.70679 2.18542C4.02319 2.18542 2.15527 4.07947 2.15527 7.81458L2.15527 22.1854C2.15527 25.9205 4.02319 27.8146 7.70679 27.8146C8.25635 27.876 8.67212 28.3468 8.67212 28.9072C8.67212 29.4678 8.25635 29.9386 7.70679 30C2.88672 30 0 27.0729 0 22.1854L0 7.81458C0 2.91394 2.88672 0 7.70679 0L19.28 0ZM18.8882 20.2649C19.4797 20.2649 19.9595 20.7512 19.9595 21.351C19.9595 21.9508 19.4797 22.4371 18.8882 22.4371L8.07251 22.4371C7.48096 22.4371 7.00146 21.9508 7.00146 21.351C7.00146 20.7512 7.48096 20.2649 8.07251 20.2649L18.8882 20.2649ZM18.8882 13.9072C19.3015 13.8611 19.7046 14.0586 19.9255 14.4159C20.1465 14.7731 20.1465 15.2269 19.9255 15.5841C19.7046 15.9414 19.3015 16.1389 18.8882 16.0928L8.07251 16.0928C7.52319 16.0312 7.10718 15.5605 7.10718 15C7.10718 14.4395 7.52319 13.9688 8.07251 13.9072L18.8882 13.9072ZM12.2002 7.56287C12.7498 7.62439 13.1655 8.09509 13.1655 8.65564C13.1655 9.21619 12.7498 9.68689 12.2002 9.74829L8.08569 9.74829C7.53613 9.68689 7.12036 9.21619 7.12036 8.65564C7.12036 8.09509 7.53613 7.62439 8.08569 7.56287L12.2002 7.56287Z" fill="#446DF6" fill-opacity="1.000000" fill-rule="nonzero"/>
</svg>
