<svg width="30.000000" height="28.500000" viewBox="0 0 30 28.5" fill="none" xmlns="http://www.w3.org/2000/svg" xmlns:xlink="http://www.w3.org/1999/xlink">
	<desc>
			Created with Pixso.
	</desc>
	<defs/>
	<path id="Vector" d="M21.3213 0C26.1067 0 30 3.98218 30 8.87842L30 19.6216C30 24.5178 26.1067 28.5 21.3213 28.5C20.7693 28.5 20.3213 28.0416 20.3213 27.4768C20.3213 26.912 20.7693 26.4536 21.3213 26.4536C25.0039 26.4536 28 23.3896 28 19.6216L28 11.0475L23.0747 11.0475C21.4573 11.0488 20.1387 12.3967 20.1375 14.0529C20.1387 15.709 21.4573 17.0569 23.0747 17.0582L25.1213 17.0582C25.6733 17.0582 26.1213 17.5166 26.1213 18.0814C26.1213 18.6462 25.6733 19.1046 25.1213 19.1046L23.0747 19.1046C20.3533 19.1033 18.1387 16.8373 18.1375 14.0529C18.1387 11.2684 20.3533 9.00256 23.0747 9.0011L28 9.0011L28 8.87842C28 5.11035 25.0039 2.04639 21.3213 2.04639L8.67725 2.04639C5.70923 2.04639 3.21875 4.04907 2.35059 6.79248L15.532 6.79248C16.084 6.79248 16.532 7.25085 16.532 7.81567C16.532 8.38184 16.084 8.83887 15.532 8.83887L2.00391 8.83887L2 8.87842L2 19.6216C2 23.3896 4.99463 26.4536 8.67725 26.4536L15.0386 26.4536C15.5906 26.4536 16.0386 26.912 16.0386 27.4768C16.0386 28.0416 15.5906 28.5 15.0386 28.5L8.67725 28.5C3.89209 28.5 0 24.5178 0 19.6216L0 8.87842C0 3.98218 3.89209 0 8.67725 0L21.3213 0ZM23.7461 12.9375C24.2981 12.9375 24.7461 13.3959 24.7461 13.9607C24.7461 14.5254 24.2981 14.9838 23.7461 14.9838L23.2915 14.9838C22.7395 14.9838 22.2915 14.5254 22.2915 13.9607C22.2915 13.3959 22.7395 12.9375 23.2915 12.9375L23.7461 12.9375Z" fill="#446DF6" fill-opacity="1.000000" fill-rule="nonzero"/>
</svg>
