<svg width="29.992432" height="30.003540" viewBox="0 0 29.9924 30.0035" fill="none" xmlns="http://www.w3.org/2000/svg" xmlns:xlink="http://www.w3.org/1999/xlink">
	<desc>
			Created with Pixso.
	</desc>
	<defs/>
	<path id="Vector" d="M23.2466 29.879C23.062 29.8835 22.8792 29.837 22.7185 29.744L15.0117 25.6851L8.22559 29.3391C7.11865 29.9391 5.73267 29.5281 5.13257 28.4196C5.12524 28.4061 5.11768 28.3926 5.11011 28.3776C4.87451 27.9141 4.79224 27.3906 4.87305 26.8776L6.19312 19.0865L0.676025 13.5006C-0.225342 12.5706 -0.225342 11.0916 0.676025 10.16C1.0271 9.79102 1.49219 9.55261 1.99609 9.48352L9.56055 8.33459L12.925 1.32507C13.4487 0.185059 14.7971 -0.315918 15.9387 0.20752C16.4336 0.434082 16.8296 0.831543 17.0562 1.32507L20.4355 8.35852L28.0256 9.52112C28.6392 9.61255 29.1897 9.95154 29.5496 10.457C30.2217 11.4231 30.1196 12.728 29.3066 13.5786L23.8152 19.0985L24.5801 23.2971C24.6865 23.9271 24.2712 24.5286 23.6426 24.6471C23.0247 24.7581 22.4336 24.347 22.3225 23.7275L21.5442 19.5291C21.4136 18.7595 21.6582 17.9735 22.2041 17.4171L27.7092 11.858L20.1191 10.6805C19.3496 10.556 18.697 10.046 18.3896 9.33057L15.0117 2.32703L11.5916 9.44153C11.2842 10.1586 10.6316 10.6671 9.86206 10.7916L2.29761 11.9406L7.76221 17.4906C8.30664 18.0381 8.55103 18.8136 8.42212 19.5741L7.10205 27.3651L13.8867 23.7261C14.5586 23.348 15.3792 23.348 16.051 23.7261L23.7476 27.785C24.217 28.0416 24.4556 28.5831 24.3281 29.1035C24.2112 29.624 23.7522 29.9946 23.2197 30.0035L23.2466 29.879Z" fill="#446DF6" fill-opacity="1.000000" fill-rule="nonzero"/>
</svg>
